:SAMPLES-PER-SECOND 30
:FULLY-SPECIFIED
:DEGREES
892
root  31.2969 39.0843 13.5906 -173.444 -65.4637 171.469
RightUpLeg  7.89126 -9.77077 -2.74348
RightLeg  8.11867 0.781713 1.5743
RightFoot  -16.7788 -0.0516638 1.30382
RightToes  2.32829e-010 0 -3.6325e-017
Spine  10.2803 0.228907 10.1325
Spine1  3.31278 2.04165 -5.05463
HEad  -7.44901 5.11599 -8.70033
LeftShoulder1  -0.175532 4.00232 -29.0668
LeftArm  -1.04246 16.7253 -41.8452
LeftForeArm  17.8302 -21.995 -4.05872
LeftHand  -0.0397719 3.03214 1.21536
RightShoulder  -0.394825 -4.71906 25.5249
RightArm  13.9301 -2.24671 47.6372
RightForeArm  8.37116 9.12567 7.24563
RightHand  -0.246328 2.02361 -4.03584
LeftUpLeg  -17.5036 4.16738 -7.93945
LeftLeg  17.3325 -2.11183 -0.409784
LeftFoot  -3.74306 0.417983 -5.94091
LeftToes  -3.54706e-010 1.16038e-010 5.28031e-012
893
root  31.0273 39.0248 13.158 -173.897 -65.7628 171.934
RightUpLeg  8.95078 -9.46623 -2.06917
RightLeg  7.5455 0.145419 1.608
RightFoot  -17.0878 -0.0588694 1.13205
RightToes  2.32829e-010 0 -3.6325e-017
Spine  10.1791 0.412561 9.68835
Spine1  3.50198 2.09863 -4.70984
HEad  -6.92458 4.49922 -8.95324
LeftShoulder1  -0.213711 4.10059 -29.6665
LeftArm  -0.774463 17.1049 -41.3733
LeftForeArm  17.8383 -19.5493 -4.55351
LeftHand  -0.035828 3.73753 1.16693
RightShoulder  -0.366154 -4.64096 25.1744
RightArm  14.9306 -1.65584 48.8633
RightForeArm  7.1718 10.7423 7.1691
RightHand  -0.316786 1.87537 -5.23493
LeftUpLeg  -17.4413 4.65756 -8.81491
LeftLeg  13.7966 -0.768868 -0.213406
LeftFoot  -3.72192 0.439836 -6.2656
LeftToes  -3.54706e-010 1.16038e-010 5.28031e-012
894
root  30.6794 38.9576 12.7063 -174.41 -65.8413 172.241
RightUpLeg  10.4131 -9.2449 -1.62055
RightLeg  6.8138 -0.223192 1.67113
RightFoot  -17.3132 -0.0764966 0.778718
RightToes  2.32829e-010 0 -3.6325e-017
Spine  10.1646 0.598053 9.29003
Spine1  3.76448 2.26345 -4.68301
HEad  -5.62113 2.59868 -10.3485
LeftShoulder1  -0.234885 4.15307 -30.0429
LeftArm  -1.67984 17.9473 -40.9851
LeftForeArm  19.1954 -17.4558 -5.17635
LeftHand  -0.0325664 4.09593 0.96657
RightShoulder  -0.3239 -4.50912 25.0774
RightArm  16.5801 -1.14903 49.888
RightForeArm  6.17462 12.4229 7.00618
RightHand  -0.31293 1.9475 -5.12682
LeftUpLeg  -16.9062 3.45597 -8.88368
LeftLeg  10.167 2.81118 -0.688544
LeftFoot  -3.59323 0.408493 -5.73652
LeftToes  -3.54706e-010 1.16038e-010 5.28031e-012
895
root  30.2659 38.8775 12.2288 -175.003 -65.7433 172.629
RightUpLeg  11.9611 -8.97309 -1.14613
RightLeg  6.12444 -0.475361 1.66632
RightFoot  -17.5475 -0.0980067 0.381948
RightToes  2.32829e-010 0 -3.6325e-017
Spine  9.82828 0.908382 9.20776
Spine1  4.55614 2.7356 -5.28229
HEad  -4.20555 -1.26852 -11.8901
LeftShoulder1  -0.238626 4.16496 -29.9525
LeftArm  -2.21806 18.8865 -40.8214
LeftForeArm  20.7521 -16.0147 -5.65625
LeftHand  -0.0227686 4.26371 -0.0365143
RightShoulder  -0.416393 -4.77641 25.7988
RightArm  18.733 -0.138036 50.3024
RightForeArm  4.86552 14.0141 6.82209
RightHand  -0.316718 2.40114 -4.92264
LeftUpLeg  -16.4113 1.35174 -8.50074
LeftLeg  7.09367 8.43651 -1.24131
LeftFoot  -3.37698 0.383803 -5.28831
LeftToes  -3.54706e-010 1.16038e-010 5.28031e-012
896
root  29.7594 38.7419 11.7282 -175.454 -65.7049 172.925
RightUpLeg  13.3793 -8.92453 -0.852297
RightLeg  5.98303 -0.48674 1.80808
RightFoot  -18.2134 -0.107395 0.264302
RightToes  2.32829e-010 0 -3.6325e-017
Spine  9.55518 1.01414 9.2915
Spine1  4.86563 3.05141 -6.16262
HEad  -2.37548 -4.49323 -13.9244
LeftShoulder1  -0.25169 4.20016 -30.0062
LeftArm  -2.82008 20.2395 -40.2306
LeftForeArm  21.7135 -14.8488 -6.01503
LeftHand  -0.0193939 4.46767 -0.694446
RightShoulder  -0.410193 -4.75724 25.7802
RightArm  20.0916 0.190934 51.4351
RightForeArm  4.06935 15.1314 6.58756
RightHand  -0.305968 2.69258 -4.58923
LeftUpLeg  -15.9491 -0.340453 -8.30788
LeftLeg  4.69925 13.609 -1.65505
LeftFoot  -3.31258 0.329813 -4.38792
LeftToes  -3.54706e-010 1.16038e-010 5.28031e-012
897
root  29.1711 38.5911 11.1882 -176.035 -65.779 173.216
RightUpLeg  15.1023 -8.88466 -0.57303
RightLeg  5.81871 -0.586276 1.96063
RightFoot  -18.7486 -0.125234 0.0262039
RightToes  2.32829e-010 0 -3.6325e-017
Spine  8.93749 1.19741 8.87178
Spine1  5.76491 3.30065 -6.40541
HEad  -0.865771 -7.35206 -15.9988
LeftShoulder1  -0.254244 4.20581 -30.0719
LeftArm  -3.89816 21.299 -39.9013
LeftForeArm  23.1466 -13.5059 -6.32664
LeftHand  -0.0230754 4.88348 -0.847918
RightShoulder  -0.423346 -4.81095 25.4317
RightArm  21.9217 0.479104 52.7148
RightForeArm  2.57546 16.1178 6.47217
RightHand  -0.41851 3.04884 -5.99491
LeftUpLeg  -15.2561 -0.910737 -8.35837
LeftLeg  3.1609 17.4801 -2.02459
LeftFoot  -2.89045 0.262308 -3.2418
LeftToes  -3.54706e-010 1.16038e-010 5.28031e-012
898
root  28.4798 38.434 10.5936 -176.467 -65.827 173.171
RightUpLeg  16.8903 -8.96656 -0.56411
RightLeg  6.30134 -0.405896 2.10104
RightFoot  -19.1483 -0.140085 -0.154837
RightToes  2.32829e-010 0 -3.6325e-017
Spine  8.86607 1.26144 8.51979
Spine1  6.07335 3.61254 -7.32511
HEad  0.591489 -8.92308 -16.8634
LeftShoulder1  -0.305431 4.34456 -30.1902
LeftArm  -4.33912 22.4102 -38.7993
LeftForeArm  24.0167 -12.6841 -6.4621
LeftHand  -0.0188226 4.72216 -1.61672
RightShoulder  -0.524138 -5.09666 26.1202
RightArm  24.4249 0.590312 53.0955
RightForeArm  1.76573 17.1669 6.29729
RightHand  -0.409364 3.10524 -5.82189
LeftUpLeg  -14.4888 -0.721645 -8.7019
LeftLeg  3.31363 19.1583 -2.02609
LeftFoot  -2.00432 0.0776702 -1.1439
LeftToes  -3.54706e-010 1.16038e-010 5.28031e-012
899
root  27.7487 38.3212 9.99226 -175.878 -65.7426 172.069
RightUpLeg  18.4781 -9.49784 -1.48805
RightLeg  7.3279 0.803779 2.52807
RightFoot  -19.5399 -0.106011 0.360309
RightToes  2.32829e-010 0 -3.6325e-017
Spine  8.71254 1.35208 7.59862
Spine1  6.604 3.97149 -8.31875
HEad  0.806006 -8.5389 -16.3654
LeftShoulder1  -0.289879 4.29936 -30.294
LeftArm  -4.98993 23.2268 -37.7413
LeftForeArm  24.6364 -12.3028 -6.3138
LeftHand  -0.0561733 5.67084 -4.82425
RightShoulder  -0.469848 -4.92765 26.1373
RightArm  25.526 0.10331 53.9059
RightForeArm  1.36543 17.8532 6.10628
RightHand  -0.367384 2.58945 -5.55587
LeftUpLeg  -14.4377 -0.00634095 -9.64501
LeftLeg  5.89975 18.1168 -1.28986
LeftFoot  0.733571 -0.646901 6.19608
LeftToes  -3.54706e-010 1.16038e-010 5.28031e-012
900
root  26.9649 38.2159 9.3582 -174.408 -66.2836 170.274
RightUpLeg  19.4011 -11.3756 -2.95319
RightLeg  9.70309 2.8891 2.82309
RightFoot  -19.9247 -0.0022769 1.74868
RightToes  2.32829e-010 0 -3.6325e-017
Spine  8.28775 1.43176 5.86356
Spine1  7.09088 4.03018 -8.55962
HEad  1.33812 -8.04109 -15.8544
LeftShoulder1  -0.307861 4.34138 -30.6242
LeftArm  -5.53819 23.0955 -36.6563
LeftForeArm  26.0117 -11.1088 -6.44703
LeftHand  -0.141148 6.90445 -6.81066
RightShoulder  -0.483596 -4.96728 26.2018
RightArm  26.9735 -0.416346 54.3035
RightForeArm  1.20375 18.2551 6.05721
RightHand  -0.388924 2.63771 -5.83122
LeftUpLeg  -15.2475 2.08405 -11.1634
LeftLeg  10.6592 15.7295 0.701167
LeftFoot  0.298072 -1.03368 10.0896
LeftToes  -3.54706e-010 1.16038e-010 5.28031e-012
901
root  26.1399 38.1276 8.73538 -172.786 -67.1677 168.068
RightUpLeg  19.5491 -15.9055 -5.71996
RightLeg  15.0397 7.91178 3.45012
RightFoot  -19.7325 0.157748 3.95513
RightToes  2.32829e-010 0 -3.6325e-017
Spine  8.4705 1.37155 4.09719
Spine1  6.8556 3.8175 -8.63822
HEad  2.13225 -6.49813 -14.9265
LeftShoulder1  -0.326814 4.38967 -30.7393
LeftArm  -6.18873 22.2781 -35.9448
LeftForeArm  27.1972 -8.81244 -6.78527
LeftHand  -0.0526819 6.06271 -3.47633
RightShoulder  -0.471415 -4.92451 26.3005
RightArm  26.935 -0.914502 54.498
RightForeArm  2.30866 17.474 6.39375
RightHand  -0.418768 2.84083 -6.12154
LeftUpLeg  -15.2302 5.04056 -12.8312
LeftLeg  14.7439 11.4754 2.49194
LeftFoot  -1.63401 -0.842355 10.0184
LeftToes  -3.54706e-010 1.16038e-010 5.28031e-012
